# xmcd
#
# Track frame offsets:
#	150
#	14400
#	36323
#	52588
#	69618
#	88560
#	102137
#	116904
#	138533
#	152901
#	164917
#
# Disc length: 2415 seconds
#
# Revision: 0
# Processed by: cddbd v1.5.2PL0 Copyright (c) Steve Scherf et al.
# Submitted via: EasyCDDAExtractor 10.0.2.1
#
DISCID=96096d0b
DTITLE=Luke Smith - This Time I've Done It
DYEAR=2005
DGENRE=Pop-Blues
TTITLE0=I Need So Much To Be Loved
TTITLE1=Awkward Teenage Girl
TTITLE2=The Hard Way
TTITLE3=No One Else Will Do
TTITLE4=You'll Never Stop People Being Gits
TTITLE5=Out On My Own
TTITLE6=This Time I've Done It
TTITLE7=She Must Have A Sensitive Side
TTITLE8=Don't Make Me Think About Life
TTITLE9=Love Is Blind
TTITLE10=Away For A Day
EXTD=
EXTT0=
EXTT1=
EXTT2=
EXTT3=
EXTT4=
EXTT5=
EXTT6=
EXTT7=
EXTT8=
EXTT9=
EXTT10=
PLAYORDER=
